<?xml version="1.0" encoding="utf-8"?>
<!-- Generator: Adobe Illustrator 21.1.0, SVG Export Plug-In . SVG Version: 6.00 Build 0)  -->
<svg version="1.1" id="Layer_1" xmlns="http://www.w3.org/2000/svg" xmlns:xlink="http://www.w3.org/1999/xlink" x="0px" y="0px"
	 viewBox="0 0 895 895" style="enable-background:new 0 0 895 895;" xml:space="preserve">
<style type="text/css">
	.st0{fill:none;stroke:#3297A5;stroke-width:3;stroke-miterlimit:10;}
	.st1{fill:none;stroke:#6B6B6B;stroke-width:3;stroke-miterlimit:10;}
	.st2{fill:#6B6B6B;stroke:#6B6B6B;stroke-width:3;stroke-miterlimit:10;}
	.st3{clip-path:url(#SVGID_2_);}
	.st4{clip-path:url(#SVGID_4_);fill:#3297A5;}
	.st5{clip-path:url(#SVGID_4_);fill:none;stroke:#6B6B6B;stroke-width:3;stroke-miterlimit:10;}
</style>
<g>
	<line class="st0" x1="447.5" y1="666.4" x2="447.5" y2="513.4"/>
	<path class="st1" d="M598.2,741.6"/>
	<polyline class="st0" points="639,666.4 639,513.4 252,513.4 252,666.4 	"/>
	<circle class="st2" cx="252" cy="639.4" r="36"/>
	<circle class="st2" cx="639" cy="639.4" r="36"/>
	<circle class="st2" cx="447.5" cy="639.4" r="36"/>
	<g>
		<g>
			<defs>
				<polygon id="SVGID_1_" points="276.5,180.4 630.5,153.4 606,543.4 297,543.4 				"/>
			</defs>
			<clipPath id="SVGID_2_">
				<use xlink:href="#SVGID_1_"  style="overflow:visible;"/>
			</clipPath>
			<g class="st3">
				<defs>
					<polygon id="SVGID_3_" points="276.5,180.4 630.5,153.4 606,543.4 297,543.4 					"/>
				</defs>
				<clipPath id="SVGID_4_">
					<use xlink:href="#SVGID_3_"  style="overflow:visible;"/>
				</clipPath>
				<path class="st4" d="M495.4,315.2c0,30.5-21.2,55.2-47.3,55.2c-26.1,0-47.3-24.7-47.3-55.2c0-30.5,21.2-55.2,47.3-55.2
					C474.3,260,495.4,284.7,495.4,315.2"/>
				<path class="st4" d="M414,386.1L360.5,416c0,0-15.8,15.8,0,55.2l66.9-0.2"/>
				<path class="st4" d="M484.1,382.7l48.8,30.7c0,0,15.6,16.5,0,57.8h-64.6"/>
				<ellipse class="st5" cx="446.4" cy="312.5" rx="50" ry="58.4"/>
				<path class="st5" d="M413.1,379.2l-58.4,33.4c0,0-16.7,16.7,0,58.4h72.6"/>
				<path class="st5" d="M481.8,379.2l52.2,33.4c0,0,16.7,16.7,0,58.4h-69"/>
				<path class="st5" d="M520.2,392.4"/>
				<path class="st5" d="M464.5,381.1c0,10.3-8.3,18.6-18.6,18.6s-18.6-8.3-18.6-18.6"/>
				<polyline class="st5" points="440.3,398.6 433.5,455.4 445.4,470.9 446.4,470.9 458.3,455.4 451.5,398.6 				"/>
			</g>
		</g>
	</g>
</g>
</svg>
