<?xml version="1.0" encoding="utf-8"?>
<!-- Generator: Adobe Illustrator 21.1.0, SVG Export Plug-In . SVG Version: 6.00 Build 0)  -->
<svg version="1.1" id="Layer_1" xmlns="http://www.w3.org/2000/svg" xmlns:xlink="http://www.w3.org/1999/xlink" x="0px" y="0px"
	 viewBox="0 0 895 895" style="enable-background:new 0 0 895 895;" xml:space="preserve">
<style type="text/css">
	.st0{fill:none;stroke:#6B6B6B;stroke-width:3;stroke-miterlimit:10;}
	.st1{fill:#6B6B6B;}
	.st2{fill:#FFFFFF;stroke:#6B6B6B;stroke-width:3;stroke-miterlimit:10;}
	.st3{fill:#3297A5;}
</style>
<g>
	<g>
		<g>
			<path class="st0" d="M534.7,205.8c42.2,1.5,81.5,14,115.3,34.8c67.5,41.6,112.5,116.2,112.5,201.3c0,75.3-35.2,142.3-90,185.6"/>
			<g>
				<polygon class="st1" points="552,216.4 553.1,213.6 535,206 553.8,200.2 552.9,197.3 526.2,205.6 				"/>
			</g>
		</g>
	</g>
	<g>
		<line class="st2" x1="213.5" y1="333.9" x2="276.5" y2="396.9"/>
		<line class="st2" x1="276.5" y1="333.9" x2="213.5" y2="396.9"/>
	</g>
	<g>
		<line class="st2" x1="300.1" y1="239.4" x2="363.1" y2="302.4"/>
		<line class="st2" x1="363.1" y1="239.4" x2="300.1" y2="302.4"/>
	</g>
	<g>
		<line class="st2" x1="528.5" y1="333.9" x2="591.5" y2="396.9"/>
		<line class="st2" x1="591.5" y1="333.9" x2="528.5" y2="396.9"/>
	</g>
	<g>
		<line class="st2" x1="386.8" y1="333.9" x2="449.8" y2="396.9"/>
		<line class="st2" x1="449.8" y1="333.9" x2="386.8" y2="396.9"/>
	</g>
	<circle class="st3" cx="177.5" cy="644.4" r="45"/>
	<circle class="st3" cx="627.5" cy="644.4" r="45"/>
	<path class="st0" d="M290,441.9"/>
	<path class="st0" d="M526.2,678.1"/>
	<circle class="st3" cx="402.5" cy="644.4" r="45"/>
</g>
</svg>
